<?xml version="1.0" encoding="UTF-8" standalone="no"?>
<svg xmlns="http://www.w3.org/2000/svg" width="16" height="16" viewBox="0 0 16 16">
  <path d="M 2 3.5 C 2 3.2 2.2 3 2.5 3 L 7.5 3 C 7.8 3 8 3.2 8 3.5 L 8 12.5 C 8 12.8 7.8 13 7.5 13 L 2.5 13 C 2.2 13 2 12.8 2 12.5 Z" fill="currentColor"/>
  <path d="M 8 3.5 C 8 3.2 8.2 3 8.5 3 L 13.5 3 C 13.8 3 14 3.2 14 3.5 L 14 12.5 C 14 12.8 13.8 13 13.5 13 L 8.5 13 C 8.2 13 8 12.8 8 12.5 Z" fill="currentColor"/>
  <line x1="3.5" y1="5" x2="6.5" y2="5" stroke="white" stroke-width="0.7" stroke-linecap="round" opacity="0.85"/>
  <line x1="3.5" y1="6.5" x2="6.2" y2="6.5" stroke="white" stroke-width="0.7" stroke-linecap="round" opacity="0.85"/>
  <line x1="3.5" y1="8" x2="6.5" y2="8" stroke="white" stroke-width="0.7" stroke-linecap="round" opacity="0.85"/>
  <line x1="3.5" y1="9.5" x2="6" y2="9.5" stroke="white" stroke-width="0.7" stroke-linecap="round" opacity="0.85"/>
  <line x1="9.5" y1="5" x2="12.5" y2="5" stroke="white" stroke-width="0.7" stroke-linecap="round" opacity="0.85"/>
  <line x1="9.5" y1="6.5" x2="12.2" y2="6.5" stroke="white" stroke-width="0.7" stroke-linecap="round" opacity="0.85"/>
  <line x1="9.5" y1="8" x2="12.5" y2="8" stroke="white" stroke-width="0.7" stroke-linecap="round" opacity="0.85"/>
  <line x1="9.5" y1="9.5" x2="12" y2="9.5" stroke="white" stroke-width="0.7" stroke-linecap="round" opacity="0.85"/>
</svg>
